<svg xmlns="http://www.w3.org/2000/svg" width="1100" height="360" viewBox="0 0 1100 360">
  <rect width="100%" height="100%" fill="#f8fafc"/>
  <text x="40.0" y="62.0" font-family="Inter, Arial, sans-serif" font-size="30" font-weight="700" fill="#0f172a" text-anchor="start">Houston 311 Flooding + Pothole Hotspot Analysis</text>
  <text x="40.0" y="96.0" font-family="Inter, Arial, sans-serif" font-size="16" font-weight="400" fill="#475569" text-anchor="start">Study window: 2025-01-01 to 2026-05-20</text>
  <rect x="40" y="145" width="230" height="150" rx="14" fill="white" stroke="#e2e8f0"/>
  <rect x="40" y="145" width="230" height="8" rx="4" fill="#c2410c"/>
  <text x="62.0" y="205.0" font-family="Inter, Arial, sans-serif" font-size="34" font-weight="800" fill="#0f172a" text-anchor="start">580,538</text>
  <text x="62.0" y="242.0" font-family="Inter, Arial, sans-serif" font-size="16" font-weight="600" fill="#475569" text-anchor="start">Raw Records</text>
  <rect x="300" y="145" width="230" height="150" rx="14" fill="white" stroke="#e2e8f0"/>
  <rect x="300" y="145" width="230" height="8" rx="4" fill="#7e22ce"/>
  <text x="322.0" y="205.0" font-family="Inter, Arial, sans-serif" font-size="34" font-weight="800" fill="#0f172a" text-anchor="start">8,396</text>
  <text x="322.0" y="242.0" font-family="Inter, Arial, sans-serif" font-size="16" font-weight="600" fill="#475569" text-anchor="start">Filtered Issues</text>
  <rect x="560" y="145" width="230" height="150" rx="14" fill="white" stroke="#e2e8f0"/>
  <rect x="560" y="145" width="230" height="8" rx="4" fill="#334155"/>
  <text x="582.0" y="205.0" font-family="Inter, Arial, sans-serif" font-size="34" font-weight="800" fill="#0f172a" text-anchor="start">8,395</text>
  <text x="582.0" y="242.0" font-family="Inter, Arial, sans-serif" font-size="16" font-weight="600" fill="#475569" text-anchor="start">Mapped Records</text>
  <rect x="820" y="145" width="230" height="150" rx="14" fill="white" stroke="#e2e8f0"/>
  <rect x="820" y="145" width="230" height="8" rx="4" fill="#db2777"/>
  <text x="842.0" y="205.0" font-family="Inter, Arial, sans-serif" font-size="34" font-weight="800" fill="#0f172a" text-anchor="start">77</text>
  <text x="842.0" y="242.0" font-family="Inter, Arial, sans-serif" font-size="16" font-weight="600" fill="#475569" text-anchor="start">Overlap ZIPs</text>
</svg>
