<svg xmlns="http://www.w3.org/2000/svg" width="1100" height="650" viewBox="0 0 1100 650">
  <rect width="100%" height="100%" fill="#f8fafc"/>
  <text x="45.0" y="55.0" font-family="Inter, Arial, sans-serif" font-size="28" font-weight="700" fill="#0f172a" text-anchor="start">Monthly Complaint Trends</text>
  <text x="45.0" y="84.0" font-family="Inter, Arial, sans-serif" font-size="15" font-weight="400" fill="#64748b" text-anchor="start">Pothole and flooding requests by created month</text>
  <line x1="85" y1="105.0" x2="1055" y2="105.0" stroke="#e2e8f0"/>
  <text x="73.0" y="110.0" font-family="Inter, Arial, sans-serif" font-size="12" font-weight="400" fill="#64748b" text-anchor="end">723</text>
  <line x1="85" y1="215.0" x2="1055" y2="215.0" stroke="#e2e8f0"/>
  <text x="73.0" y="220.0" font-family="Inter, Arial, sans-serif" font-size="12" font-weight="400" fill="#64748b" text-anchor="end">542</text>
  <line x1="85" y1="325.0" x2="1055" y2="325.0" stroke="#e2e8f0"/>
  <text x="73.0" y="330.0" font-family="Inter, Arial, sans-serif" font-size="12" font-weight="400" fill="#64748b" text-anchor="end">361</text>
  <line x1="85" y1="435.0" x2="1055" y2="435.0" stroke="#e2e8f0"/>
  <text x="73.0" y="440.0" font-family="Inter, Arial, sans-serif" font-size="12" font-weight="400" fill="#64748b" text-anchor="end">180</text>
  <line x1="85" y1="545.0" x2="1055" y2="545.0" stroke="#e2e8f0"/>
  <text x="73.0" y="550.0" font-family="Inter, Arial, sans-serif" font-size="12" font-weight="400" fill="#64748b" text-anchor="end">0</text>
  <polyline points="85.0,211.5 145.6,105.0 206.2,220.6 266.9,254.1 327.5,233.4 388.1,215.2 448.8,240.7 509.4,236.5 570.0,293.7 630.6,325.9 691.2,365.5 751.9,344.8 812.5,333.8 873.1,314.3 933.8,310.1 994.4,281.5 1055.0,333.8" fill="none" stroke="#c2410c" stroke-width="4" stroke-linecap="round" stroke-linejoin="round"/>
  <circle cx="85.0" cy="211.5" r="5" fill="white" stroke="#c2410c" stroke-width="3"/>
  <circle cx="145.6" cy="105.0" r="5" fill="white" stroke="#c2410c" stroke-width="3"/>
  <circle cx="206.2" cy="220.6" r="5" fill="white" stroke="#c2410c" stroke-width="3"/>
  <circle cx="266.9" cy="254.1" r="5" fill="white" stroke="#c2410c" stroke-width="3"/>
  <circle cx="327.5" cy="233.4" r="5" fill="white" stroke="#c2410c" stroke-width="3"/>
  <circle cx="388.1" cy="215.2" r="5" fill="white" stroke="#c2410c" stroke-width="3"/>
  <circle cx="448.8" cy="240.7" r="5" fill="white" stroke="#c2410c" stroke-width="3"/>
  <circle cx="509.4" cy="236.5" r="5" fill="white" stroke="#c2410c" stroke-width="3"/>
  <circle cx="570.0" cy="293.7" r="5" fill="white" stroke="#c2410c" stroke-width="3"/>
  <circle cx="630.6" cy="325.9" r="5" fill="white" stroke="#c2410c" stroke-width="3"/>
  <circle cx="691.2" cy="365.5" r="5" fill="white" stroke="#c2410c" stroke-width="3"/>
  <circle cx="751.9" cy="344.8" r="5" fill="white" stroke="#c2410c" stroke-width="3"/>
  <circle cx="812.5" cy="333.8" r="5" fill="white" stroke="#c2410c" stroke-width="3"/>
  <circle cx="873.1" cy="314.3" r="5" fill="white" stroke="#c2410c" stroke-width="3"/>
  <circle cx="933.8" cy="310.1" r="5" fill="white" stroke="#c2410c" stroke-width="3"/>
  <circle cx="994.4" cy="281.5" r="5" fill="white" stroke="#c2410c" stroke-width="3"/>
  <circle cx="1055.0" cy="333.8" r="5" fill="white" stroke="#c2410c" stroke-width="3"/>
  <rect x="870" y="120" width="18" height="18" rx="4" fill="#c2410c"/>
  <text x="898.0" y="135.0" font-family="Inter, Arial, sans-serif" font-size="15" font-weight="600" fill="#334155" text-anchor="start">Pothole</text>
  <polyline points="85.0,506.7 145.6,512.1 206.2,530.4 266.9,506.7 327.5,531.0 388.1,500.0 448.8,523.1 509.4,508.5 570.0,531.6 630.6,532.8 691.2,529.8 751.9,521.3 812.5,536.5 873.1,524.3 933.8,513.4 994.4,491.4 1055.0,500.6" fill="none" stroke="#7e22ce" stroke-width="4" stroke-linecap="round" stroke-linejoin="round"/>
  <circle cx="85.0" cy="506.7" r="5" fill="white" stroke="#7e22ce" stroke-width="3"/>
  <circle cx="145.6" cy="512.1" r="5" fill="white" stroke="#7e22ce" stroke-width="3"/>
  <circle cx="206.2" cy="530.4" r="5" fill="white" stroke="#7e22ce" stroke-width="3"/>
  <circle cx="266.9" cy="506.7" r="5" fill="white" stroke="#7e22ce" stroke-width="3"/>
  <circle cx="327.5" cy="531.0" r="5" fill="white" stroke="#7e22ce" stroke-width="3"/>
  <circle cx="388.1" cy="500.0" r="5" fill="white" stroke="#7e22ce" stroke-width="3"/>
  <circle cx="448.8" cy="523.1" r="5" fill="white" stroke="#7e22ce" stroke-width="3"/>
  <circle cx="509.4" cy="508.5" r="5" fill="white" stroke="#7e22ce" stroke-width="3"/>
  <circle cx="570.0" cy="531.6" r="5" fill="white" stroke="#7e22ce" stroke-width="3"/>
  <circle cx="630.6" cy="532.8" r="5" fill="white" stroke="#7e22ce" stroke-width="3"/>
  <circle cx="691.2" cy="529.8" r="5" fill="white" stroke="#7e22ce" stroke-width="3"/>
  <circle cx="751.9" cy="521.3" r="5" fill="white" stroke="#7e22ce" stroke-width="3"/>
  <circle cx="812.5" cy="536.5" r="5" fill="white" stroke="#7e22ce" stroke-width="3"/>
  <circle cx="873.1" cy="524.3" r="5" fill="white" stroke="#7e22ce" stroke-width="3"/>
  <circle cx="933.8" cy="513.4" r="5" fill="white" stroke="#7e22ce" stroke-width="3"/>
  <circle cx="994.4" cy="491.4" r="5" fill="white" stroke="#7e22ce" stroke-width="3"/>
  <circle cx="1055.0" cy="500.6" r="5" fill="white" stroke="#7e22ce" stroke-width="3"/>
  <rect x="870" y="152" width="18" height="18" rx="4" fill="#7e22ce"/>
  <text x="898.0" y="167.0" font-family="Inter, Arial, sans-serif" font-size="15" font-weight="600" fill="#334155" text-anchor="start">Flooding</text>
  <text x="85.0" y="592.0" font-family="Inter, Arial, sans-serif" font-size="12" font-weight="400" fill="#64748b" text-anchor="middle">2025-01</text>
  <text x="206.2" y="592.0" font-family="Inter, Arial, sans-serif" font-size="12" font-weight="400" fill="#64748b" text-anchor="middle">2025-03</text>
  <text x="327.5" y="592.0" font-family="Inter, Arial, sans-serif" font-size="12" font-weight="400" fill="#64748b" text-anchor="middle">2025-05</text>
  <text x="448.8" y="592.0" font-family="Inter, Arial, sans-serif" font-size="12" font-weight="400" fill="#64748b" text-anchor="middle">2025-07</text>
  <text x="570.0" y="592.0" font-family="Inter, Arial, sans-serif" font-size="12" font-weight="400" fill="#64748b" text-anchor="middle">2025-09</text>
  <text x="691.2" y="592.0" font-family="Inter, Arial, sans-serif" font-size="12" font-weight="400" fill="#64748b" text-anchor="middle">2025-11</text>
  <text x="812.5" y="592.0" font-family="Inter, Arial, sans-serif" font-size="12" font-weight="400" fill="#64748b" text-anchor="middle">2026-01</text>
  <text x="933.8" y="592.0" font-family="Inter, Arial, sans-serif" font-size="12" font-weight="400" fill="#64748b" text-anchor="middle">2026-03</text>
  <text x="1055.0" y="592.0" font-family="Inter, Arial, sans-serif" font-size="12" font-weight="400" fill="#64748b" text-anchor="middle">2026-05</text>
</svg>
