<svg xmlns="http://www.w3.org/2000/svg" width="1000" height="720" viewBox="0 0 1000 720">
  <rect width="100%" height="100%" fill="#f8fafc"/>
  <text x="45.0" y="55.0" font-family="Inter, Arial, sans-serif" font-size="28" font-weight="700" fill="#0f172a" text-anchor="start">Top Priority ZIP Codes</text>
  <text x="45.0" y="84.0" font-family="Inter, Arial, sans-serif" font-size="15" font-weight="400" fill="#64748b" text-anchor="start">Priority score = 2 x flooding + 1 x pothole + 10 x overlap flag</text>
  <text x="45.0" y="136.0" font-family="Inter, Arial, sans-serif" font-size="17" font-weight="700" fill="#0f172a" text-anchor="start">77093</text>
  <rect x="135" y="110" width="710" height="38" rx="10" fill="#e2e8f0"/>
  <rect x="135" y="110" width="282.6" height="38" rx="10" fill="#ea580c"/>
  <text x="431.6" y="135.0" font-family="Inter, Arial, sans-serif" font-size="16" font-weight="700" fill="#0f172a" text-anchor="start">195</text>
  <text x="960.0" y="135.0" font-family="Inter, Arial, sans-serif" font-size="13" font-weight="600" fill="#64748b" text-anchor="end">F:14  P:157</text>
  <text x="45.0" y="192.0" font-family="Inter, Arial, sans-serif" font-size="17" font-weight="700" fill="#0f172a" text-anchor="start">77003</text>
  <rect x="135" y="166" width="710" height="38" rx="10" fill="#e2e8f0"/>
  <rect x="135" y="166" width="286.9" height="38" rx="10" fill="#ea580c"/>
  <text x="435.9" y="191.0" font-family="Inter, Arial, sans-serif" font-size="16" font-weight="700" fill="#0f172a" text-anchor="start">198</text>
  <text x="960.0" y="191.0" font-family="Inter, Arial, sans-serif" font-size="13" font-weight="600" fill="#64748b" text-anchor="end">F:23  P:142</text>
  <text x="45.0" y="248.0" font-family="Inter, Arial, sans-serif" font-size="17" font-weight="700" fill="#0f172a" text-anchor="start">77030</text>
  <rect x="135" y="222" width="710" height="38" rx="10" fill="#e2e8f0"/>
  <rect x="135" y="222" width="288.3" height="38" rx="10" fill="#ea580c"/>
  <text x="437.3" y="247.0" font-family="Inter, Arial, sans-serif" font-size="16" font-weight="700" fill="#0f172a" text-anchor="start">199</text>
  <text x="960.0" y="247.0" font-family="Inter, Arial, sans-serif" font-size="13" font-weight="600" fill="#64748b" text-anchor="end">F:23  P:143</text>
  <text x="45.0" y="304.0" font-family="Inter, Arial, sans-serif" font-size="17" font-weight="700" fill="#0f172a" text-anchor="start">77077</text>
  <rect x="135" y="278" width="710" height="38" rx="10" fill="#e2e8f0"/>
  <rect x="135" y="278" width="289.8" height="38" rx="10" fill="#ea580c"/>
  <text x="438.8" y="303.0" font-family="Inter, Arial, sans-serif" font-size="16" font-weight="700" fill="#0f172a" text-anchor="start">200</text>
  <text x="960.0" y="303.0" font-family="Inter, Arial, sans-serif" font-size="13" font-weight="600" fill="#64748b" text-anchor="end">F:7  P:176</text>
  <text x="45.0" y="360.0" font-family="Inter, Arial, sans-serif" font-size="17" font-weight="700" fill="#0f172a" text-anchor="start">77004</text>
  <rect x="135" y="334" width="710" height="38" rx="10" fill="#e2e8f0"/>
  <rect x="135" y="334" width="295.6" height="38" rx="10" fill="#ea580c"/>
  <text x="444.6" y="359.0" font-family="Inter, Arial, sans-serif" font-size="16" font-weight="700" fill="#0f172a" text-anchor="start">204</text>
  <text x="960.0" y="359.0" font-family="Inter, Arial, sans-serif" font-size="13" font-weight="600" fill="#64748b" text-anchor="end">F:15  P:164</text>
  <text x="45.0" y="416.0" font-family="Inter, Arial, sans-serif" font-size="17" font-weight="700" fill="#0f172a" text-anchor="start">77009</text>
  <rect x="135" y="390" width="710" height="38" rx="10" fill="#e2e8f0"/>
  <rect x="135" y="390" width="314.4" height="38" rx="10" fill="#ea580c"/>
  <text x="463.4" y="415.0" font-family="Inter, Arial, sans-serif" font-size="16" font-weight="700" fill="#0f172a" text-anchor="start">217</text>
  <text x="960.0" y="415.0" font-family="Inter, Arial, sans-serif" font-size="13" font-weight="600" fill="#64748b" text-anchor="end">F:21  P:165</text>
  <text x="45.0" y="472.0" font-family="Inter, Arial, sans-serif" font-size="17" font-weight="700" fill="#0f172a" text-anchor="start">77006</text>
  <rect x="135" y="446" width="710" height="38" rx="10" fill="#e2e8f0"/>
  <rect x="135" y="446" width="346.3" height="38" rx="10" fill="#ea580c"/>
  <text x="495.3" y="471.0" font-family="Inter, Arial, sans-serif" font-size="16" font-weight="700" fill="#0f172a" text-anchor="start">239</text>
  <text x="960.0" y="471.0" font-family="Inter, Arial, sans-serif" font-size="13" font-weight="600" fill="#64748b" text-anchor="end">F:20  P:189</text>
  <text x="45.0" y="528.0" font-family="Inter, Arial, sans-serif" font-size="17" font-weight="700" fill="#0f172a" text-anchor="start">77082</text>
  <rect x="135" y="502" width="710" height="38" rx="10" fill="#e2e8f0"/>
  <rect x="135" y="502" width="385.4" height="38" rx="10" fill="#ea580c"/>
  <text x="534.4" y="527.0" font-family="Inter, Arial, sans-serif" font-size="16" font-weight="700" fill="#0f172a" text-anchor="start">266</text>
  <text x="960.0" y="527.0" font-family="Inter, Arial, sans-serif" font-size="13" font-weight="600" fill="#64748b" text-anchor="end">F:50  P:156</text>
  <text x="45.0" y="584.0" font-family="Inter, Arial, sans-serif" font-size="17" font-weight="700" fill="#0f172a" text-anchor="start">77008</text>
  <rect x="135" y="558" width="710" height="38" rx="10" fill="#e2e8f0"/>
  <rect x="135" y="558" width="563.7" height="38" rx="10" fill="#ea580c"/>
  <text x="712.7" y="583.0" font-family="Inter, Arial, sans-serif" font-size="16" font-weight="700" fill="#0f172a" text-anchor="start">389</text>
  <text x="960.0" y="583.0" font-family="Inter, Arial, sans-serif" font-size="13" font-weight="600" fill="#64748b" text-anchor="end">F:33  P:313</text>
  <text x="45.0" y="640.0" font-family="Inter, Arial, sans-serif" font-size="17" font-weight="700" fill="#0f172a" text-anchor="start">77007</text>
  <rect x="135" y="614" width="710" height="38" rx="10" fill="#e2e8f0"/>
  <rect x="135" y="614" width="710.0" height="38" rx="10" fill="#ea580c"/>
  <text x="859.0" y="639.0" font-family="Inter, Arial, sans-serif" font-size="16" font-weight="700" fill="#0f172a" text-anchor="start">490</text>
  <text x="960.0" y="639.0" font-family="Inter, Arial, sans-serif" font-size="13" font-weight="600" fill="#64748b" text-anchor="end">F:39  P:402</text>
</svg>
